<?xml version="1.0" encoding="UTF-8"?>
<svg width="510px" height="510px" viewBox="0 0 510 510" version="1.1" xmlns="http://www.w3.org/2000/svg" xmlns:xlink="http://www.w3.org/1999/xlink">
    <!-- Generator: Sketch 48.2 (47327) - http://www.bohemiancoding.com/sketch -->
    <title>bar</title>
    <desc>Created with Sketch.</desc>
    <defs></defs>
    <g id="Page-1" stroke="none" stroke-width="1" fill="none" fill-rule="evenodd">
        <g id="bar" fill="#5F5F5F" fill-rule="nonzero">
            <path d="M495.055343,0 L14.9416689,0 C6.68291044,0 0,6.62085436 0,14.8029237 C0,22.9849931 6.68291044,29.6058475 14.9416689,29.6058475 L90.6441324,29.6058475 L90.6441324,61.9374067 C73.289882,68.0687777 60.7617907,84.3450858 60.7617907,103.618492 L60.7617907,135.197076 C60.7617907,143.379146 67.4447012,150 75.7034596,150 L135.469139,150 C143.727898,150 150.410808,143.379146 150.410808,135.197076 L150.410808,103.618492 C150.410808,84.3450858 137.881721,68.0687777 120.528466,61.9374067 L120.528466,29.6048606 L240.056837,29.6048606 L240.056837,61.9364198 C222.702587,68.0677908 210.174495,84.3440989 210.174495,103.617506 L210.174495,135.196089 C210.174495,143.378159 216.857406,149.999013 225.116164,149.999013 L284.881844,149.999013 C293.140602,149.999013 299.823513,143.378159 299.823513,135.196089 L299.823513,103.617506 C299.823513,84.3440989 287.294425,68.0677908 269.941171,61.9364198 L269.941171,29.6048606 L389.471534,29.6048606 L389.471534,61.9364198 C372.117283,68.0677908 359.589192,84.3440989 359.589192,103.617506 L359.589192,135.196089 C359.589192,143.378159 366.272102,149.999013 374.530861,149.999013 L434.29654,149.999013 C442.555299,149.999013 449.238209,143.378159 449.238209,135.196089 L449.238209,103.617506 C449.238209,84.3440989 436.709122,68.0677908 419.355868,61.9364198 L419.355868,29.6048606 L495.058331,29.6048606 C503.31709,29.6048606 510,22.9840063 510,14.8019369 C509.997012,6.62085436 503.314101,0 495.055343,0 Z" id="Shape"></path>
            <path d="M238.870192,489.305535 L185.865996,359.995951 L194.999029,359.995951 C211.568091,359.995951 224.99814,346.56341 224.99814,329.997976 C224.99814,313.429541 211.567091,300 194.999029,300 L134.999807,300 C118.430746,300 105.000696,313.430541 105.000696,329.997976 C105.000696,346.56441 118.431746,359.995951 134.999807,359.995951 L144.132841,359.995951 L91.1296452,489.304535 C87.9796335,496.966273 91.6426471,505.724974 99.3176755,508.874867 C106.978704,512.00976 115.738736,508.376884 118.873748,500.672147 L165.000918,388.163989 L211.128089,500.672147 C214.270101,508.372884 223.055133,511.99876 230.684161,508.874867 C238.35819,505.725974 242.020203,496.966273 238.870192,489.305535 Z" id="Shape"></path>
            <path d="M418.870213,489.305535 L365.866366,359.995951 L374.999339,359.995951 C391.568292,359.995951 404.998253,346.56341 404.998253,329.997976 C404.998253,313.429541 391.567292,300 374.999339,300 L315.000512,300 C298.431559,300 285.001598,313.430541 285.001598,329.997976 C285.001598,346.56441 298.432559,359.995951 315.000512,359.995951 L324.133486,359.995951 L271.129638,489.304535 C267.979647,496.966273 271.642636,505.724974 279.317614,508.874867 C286.978592,512.00976 295.738567,508.376884 298.873558,500.672147 L345.000426,388.163989 L391.127293,500.672147 C394.269284,508.372884 403.054259,511.99876 410.683237,508.874867 C418.358215,505.725974 422.020204,496.966273 418.870213,489.305535 Z" id="Shape"></path>
            <path d="M495.052442,210.0005 L464.17417,210.0005 L449.232589,210.0005 L449.232589,195.00025 C449.232589,186.709112 442.549717,180 434.291007,180 C426.032297,180 419.349426,186.709112 419.349426,195.00025 L419.349426,210.0005 L389.467259,210.0005 L389.467259,195.00025 C389.467259,186.709112 382.784388,180 374.525678,180 C366.266968,180 359.584097,186.709112 359.584097,195.00025 L359.584097,210.0005 L45.8198534,210.0005 L14.9415813,210.0005 C6.68287128,210.0005 0,216.709612 0,225.00075 C0,233.291888 6.68287128,240.001 14.9415813,240.001 L30.8792681,240.001 L30.8792681,464.99975 C30.8792681,473.290888 37.5621394,480 45.8208495,480 L63.5057051,480 C63.749751,479.307988 63.854342,478.589976 64.1332516,477.904965 L103.82108,380.694345 C86.9928749,370.071168 75.7040122,351.394857 75.7040122,330.0005 C75.7040122,296.909948 102.507217,270.0005 135.469341,270.0005 L195.234671,270.0005 C228.195799,270.0005 255,296.908948 255,330.0005 C255,296.909948 281.803205,270.0005 314.765329,270.0005 L374.530659,270.0005 C407.491787,270.0005 434.295988,296.908948 434.295988,330.0005 C434.295988,351.396857 423.002145,370.073168 406.17394,380.696345 L445.88169,477.933966 C446.156615,478.607977 446.257222,479.317989 446.500271,479.999 L464.179151,479.999 C472.437861,479.999 480.116837,473.289888 480.116837,464.99875 L480.116837,240 L495.058419,240 C503.317129,240 510,233.290888 510,224.99975 C509.994023,216.709612 503.311152,210.0005 495.052442,210.0005 Z" id="Shape"></path>
            <path d="M247.501993,330 C247.501993,351.474381 238.465169,370.219802 225,380.881718 L247.501993,450 L270,380.879711 C256.536425,370.216791 247.501993,351.472374 247.501993,330 Z" id="Shape"></path>
        </g>
    </g>
</svg>