<?xml version="1.0" encoding="UTF-8"?>
<svg width="240px" height="780px" viewBox="0 0 240 780" version="1.1" xmlns="http://www.w3.org/2000/svg" xmlns:xlink="http://www.w3.org/1999/xlink">
    <!-- Generator: Sketch 48.2 (47327) - http://www.bohemiancoding.com/sketch -->
    <title>champagne</title>
    <desc>Created with Sketch.</desc>
    <defs></defs>
    <g id="Page-1" stroke="none" stroke-width="1" fill="none" fill-rule="evenodd" opacity="0.600000024">
        <g id="champagne" fill="#000000" fill-rule="nonzero">
            <g id="Step-2">
                <g id="champagne">
                    <path d="M162.520752,0 L162.096745,0 L77.9020606,0 L77.4780534,0 C73.3478653,0 70.0000003,4.35689549 70.0000003,9.73190249 L70.0000003,55.4350056 C69.9988059,60.8084583 73.346671,65.1669081 77.4768591,65.1669081 L77.9008662,65.1669081 L77.9008662,136.380311 C77.9008662,154.928592 76.9823831,173.397601 75.1848316,191.678532 L119.999403,250 L164.813974,191.678532 C163.016423,173.396047 162.09794,154.930147 162.09794,136.380311 L162.09794,65.1669081 L162.521947,65.1669081 C166.652135,65.1669081 170,60.8100126 170,55.4350056 L170,9.73190249 C169.998806,4.35689549 166.652135,0 162.520752,0 Z" id="Shape"></path>
                    <path d="M207.332673,351.384378 C195.466883,325.505226 185.855616,298.215308 178.587192,270 L138.788695,320.421632 C133.601738,326.993107 126.802361,330.280356 120.00179,330.280356 C113.201219,330.280356 106.403035,326.993107 101.214885,320.421632 L61.4163876,270 C54.1467706,298.215308 44.5366975,325.505226 32.6709068,351.384378 C11.2714271,398.059089 0,451.075441 0,505.050447 L0,752.697985 C0,767.776391 9.64826516,780 21.549861,780 L218.450139,780 C230.351734,780 240,767.776391 240,752.697985 L240,505.050447 C240.002387,451.075441 228.73096,398.059089 207.332673,351.384378 Z M41.1937002,459.154454 C42.259497,423.814252 50.7154543,389.340469 65.6485436,359.458855 C69.5739696,351.603629 77.7828721,349.273522 83.9783378,354.242199 C90.1761905,359.215411 92.0201501,369.610923 88.0971111,377.464637 C75.6679877,402.336748 68.62991,431.028359 67.7431385,460.441229 C67.4698267,469.510651 61.5810909,476.627985 54.4773706,476.627985 C54.3055064,476.627985 54.1336422,476.624961 53.9605845,476.615889 C46.630099,476.260551 40.9132274,468.443127 41.1937002,459.154454 Z M190.99722,685.753917 C190.99722,695.358614 184.851881,703.144285 177.27076,703.144285 L62.7364002,703.144285 C55.1552794,703.144285 49.0099408,695.358614 49.0099408,685.753917 L49.0099408,591.506323 C49.0099408,581.901626 55.1552794,574.115955 62.7364002,574.115955 L177.27076,574.115955 C184.851881,574.115955 190.99722,581.901626 190.99722,591.506323 L190.99722,685.753917 Z" id="Shape"></path>
                </g>
            </g>
        </g>
    </g>
</svg>