<?xml version="1.0" encoding="UTF-8"?>
<svg width="39px" height="66px" viewBox="0 0 39 66" version="1.1" xmlns="http://www.w3.org/2000/svg" xmlns:xlink="http://www.w3.org/1999/xlink">
    <!-- Generator: Sketch 48.2 (47327) - http://www.bohemiancoding.com/sketch -->
    <title>big-bottle</title>
    <desc>Created with Sketch.</desc>
    <defs></defs>
    <g id="Step-2" stroke="none" stroke-width="1" fill="none" fill-rule="evenodd" transform="translate(-414.000000, -558.000000)" opacity="0.600000024">
        <g id="big-bottle" transform="translate(414.000000, 558.000000)" fill="#000100" fill-rule="nonzero">
            <path d="M30.5016734,34.5964195 C25.5215321,30.8728709 22.7974196,24.7369937 23.3489722,18.463411 L24.293552,7.74047588 C24.3315403,7.30644178 24.1893144,6.87482122 23.9005248,6.55489371 C23.6123924,6.23429577 23.2046431,6.04952623 22.7784912,6.04952623 L22.1049556,6.04952623 L22.1049556,1.55083052 C22.1049556,0.696036764 21.423796,0 20.5834538,0 L18.4151003,0 C17.5746266,0 16.8934671,0.696036764 16.8934671,1.55083052 L16.8934671,6.04952623 L16.2217717,6.04952623 C15.7949625,6.04952623 15.3872132,6.23429577 15.0989494,6.55489371 C14.8101599,6.87482122 14.6681968,7.30644178 14.7060537,7.74047588 L15.6506335,18.463411 C16.2040263,24.7454411 13.4856975,30.8687142 8.49793223,34.5964195 C3.62662919,38.2379079 0,43.6820391 0,49.775143 C0,55.2922166 2.20923366,60.2787146 5.76961344,63.8798433 C7.11352996,65.2374569 8.92815903,66 10.8202105,66 L28.1792637,66 C30.0707894,66 31.88647,65.2374569 33.2298608,63.8798433 C36.7908978,60.2787146 39,55.2923506 39,49.775143 C39.0001314,43.6820391 35.372845,38.238042 30.5016734,34.5964195 Z M12.3359286,59.0648404 C13.057311,59.6021202 13.2153106,60.6332361 12.6874185,61.3685598 C12.3702363,61.8111754 11.8783608,62.0471655 11.3807015,62.0471655 C11.0486658,62.0471655 10.7147898,61.9439198 10.4273147,61.7291152 C6.66805529,58.9253917 4.51153197,54.7683453 4.51153197,50.325295 C4.51153197,45.8778199 6.66805529,41.7226507 10.4273147,38.9190612 C11.1458053,38.384195 12.1601836,38.5410748 12.6874185,39.2776053 C13.2153106,40.0129291 13.0571795,41.0459222 12.3359286,41.5830679 C9.41937734,43.7575291 7.74631695,46.9432616 7.74631695,50.3251609 C7.74631695,53.7046467 9.41937734,56.8909155 12.3359286,59.0648404 Z" id="Shape"></path>
        </g>
    </g>
</svg>