<?xml version="1.0" encoding="UTF-8"?>
<svg width="770px" height="770px" viewBox="0 0 770 770" version="1.1" xmlns="http://www.w3.org/2000/svg" xmlns:xlink="http://www.w3.org/1999/xlink">
    <!-- Generator: Sketch 48.2 (47327) - http://www.bohemiancoding.com/sketch -->
    <title>cooler</title>
    <desc>Created with Sketch.</desc>
    <defs></defs>
    <g id="Page-1" stroke="none" stroke-width="1" fill="none" fill-rule="evenodd" opacity="0.600000024">
        <g id="cooler" fill="#000000" fill-rule="nonzero">
            <g id="Step-4">
                <g id="freezer">
                    <path d="M535.199629,33.8920313 L535.199629,0 L234.800371,0 L234.800371,33.8920313 L0,33.8920313 L0,476.676621 L45.205918,476.676621 L45.205918,770 L724.79709,770 L724.79709,476.676621 L770,476.676621 L770,33.8920313 L535.199629,33.8920313 Z M722.857051,393.017324 L486.988906,393.017324 L486.988906,524.34293 L283.011094,524.34293 L283.011094,393.017324 L47.1429492,393.017324 L47.1429492,345.874375 L722.857051,345.874375 L722.857051,393.017324 Z M722.858555,203.028848 L47.1429492,203.028848 L47.1429492,81.0349805 L234.800371,81.0349805 L234.800371,114.928516 L535.201133,114.928516 L535.201133,81.0349805 L722.858555,81.0349805 L722.858555,203.028848 Z" id="Shape"></path>
                    <rect id="Rectangle-path" x="330" y="400" width="110" height="80"></rect>
                </g>
            </g>
        </g>
    </g>
</svg>