<?xml version="1.0" encoding="UTF-8"?>
<svg width="398px" height="800px" viewBox="0 0 398 800" version="1.1" xmlns="http://www.w3.org/2000/svg" xmlns:xlink="http://www.w3.org/1999/xlink">
    <!-- Generator: Sketch 48.2 (47327) - http://www.bohemiancoding.com/sketch -->
    <title>cream</title>
    <desc>Created with Sketch.</desc>
    <defs></defs>
    <g id="Page-1" stroke="none" stroke-width="1" fill="none" fill-rule="evenodd" opacity="0.600000024">
        <g id="cream" transform="translate(-1.000000, 0.000000)" fill="#010002" fill-rule="nonzero">
            <g id="Step-2">
                <g id="glass-and-bottle-of-wine">
                    <path d="M260.590193,103.295589 L140.491147,103.295589 L140.491147,30 C140.491147,13.4314575 153.922605,1.5922179e-14 170.491147,1.28785871e-14 L230.590193,-4.4408921e-16 C247.158736,-3.48768109e-15 260.590193,13.4314575 260.590193,30 L260.590193,103.295589 Z M260.590193,231.288378 C292.879823,245.725365 336.623748,286.434237 391.82197,353.414993 C397.049844,359.758802 399.445575,367.969926 398.449364,376.129714 L349.918568,773.63564 C348.081056,788.68638 335.302175,800 320.139681,800 L80.759541,800 C65.6555706,800 52.9068093,788.771128 50.9996571,773.788048 L1.54890155,385.290155 C0.550975567,377.450191 2.68703634,369.533134 7.49298421,363.25908 C63.7745863,289.784935 108.107307,245.809724 140.491147,231.333446 L140.491147,135.068447 L260.590193,135.068447 L260.590193,231.288378 Z M323.630749,495.746718 L336.702907,397.699046 C292.6554,372.928394 247.214974,360.543068 200.381629,360.543068 C153.548284,360.543068 108.107858,372.928394 64.0603506,397.699046 L77.1325084,495.746718 C115.56944,470.458396 156.65248,457.814235 200.381629,457.814235 C244.110777,457.814235 285.193817,470.458396 323.630749,495.746718 Z" id="Shape"></path>
                </g>
            </g>
        </g>
    </g>
</svg>