<?xml version="1.0" encoding="UTF-8"?>
<svg width="790px" height="740px" viewBox="0 0 790 740" version="1.1" xmlns="http://www.w3.org/2000/svg" xmlns:xlink="http://www.w3.org/1999/xlink">
    <!-- Generator: Sketch 48.2 (47327) - http://www.bohemiancoding.com/sketch -->
    <title>delivery</title>
    <desc>Created with Sketch.</desc>
    <defs></defs>
    <g id="Page-1" stroke="none" stroke-width="1" fill="none" fill-rule="evenodd" opacity="0.600000024">
        <g id="delivery" fill="#000000" fill-rule="nonzero">
            <g id="Step-4">
                <g id="commercial-delivery-symbol-of-a-list-on-clipboard-on-a-box-package">
                    <path d="M773.595894,125.027242 L687.232947,16.2601243 C679.076074,5.98545697 666.700707,0 653.610209,0 L207.246321,0 C194.158405,0 181.783038,5.98545697 173.624874,16.2588285 L87.2632185,125.027242 C78.2414764,136.39041 70.8591123,157.575999 70.8591123,173.569181 L70.8591123,253.239644 C77.7186826,242.406472 87.7447051,234.275114 99.7676705,230.115487 C100.440203,221.010958 103.189711,212.181145 107.892273,204.140496 C116.038819,190.210281 129.107372,180.304926 144.684044,176.237303 C150.268256,174.773011 155.381308,174.109544 160.493069,174.109544 C181.088562,174.109544 199.751653,184.626532 210.679979,201.148415 C213.934209,200.579544 217.218128,200.284094 220.514956,200.284094 C230.627465,200.284094 240.183618,203.07532 248.508302,207.885456 L296.345867,195.394912 C302.340569,193.824362 308.500499,193.035199 314.673338,193.035199 C347.759083,193.035199 376.679259,215.501072 385.014269,247.672741 L478.764743,609.385348 C483.655769,628.256578 480.926915,647.909195 471.100974,664.727824 C461.264706,681.546453 445.487952,693.505704 426.688031,698.416915 L384.84775,709.342091 L736.25422,709.342091 C765.937288,709.342091 790,685.18645 790,655.390045 L789.998709,172.107481 C789.998709,157.575999 782.617636,136.39041 773.595894,125.027242 Z M115.485045,124.1072 L144.085091,88.0869038 L339.217536,88.0869038 L358.473128,56.3052806 L169.321184,56.3052806 L190.435598,29.7121764 C194.537915,24.5456865 200.665574,21.5821143 207.246321,21.5821143 L653.6115,21.5821143 C660.193538,21.5821143 666.321197,24.5456865 670.422224,29.7121764 L691.536637,56.3052806 L499.015579,56.3052806 L509.764476,88.0869038 L716.772731,88.0869038 L745.371485,124.1072 L115.485045,124.1072 Z M124.208601,257.005337 L112.145619,260.155509 C99.2978016,263.511719 91.5914344,276.687759 94.9334419,289.585194 L95.0560725,290.056878 C98.3993708,302.955609 111.524721,310.690442 124.37383,307.335527 L226.676177,280.618023 C239.525286,277.263109 247.230362,264.08707 243.888354,251.187043 L243.765724,250.715359 C240.422425,237.817924 227.297075,230.081795 214.449257,233.436709 L202.386276,236.586882 C195.941068,238.27017 189.355157,234.389147 187.678345,227.919049 L187.575077,227.525115 C183.680586,212.498625 168.390482,203.4861 153.4218,207.395631 L152.795738,207.558906 C137.827056,211.468437 128.850493,226.81759 132.743693,241.84408 L132.846961,242.238014 C134.521192,248.712 130.6551,255.322049 124.208601,257.005337 Z M157.183333,223.208692 C163.67243,221.513741 170.302229,225.421977 171.989369,231.934838 C173.677799,238.448995 169.78589,245.104398 163.295502,246.798053 C156.806405,248.491708 150.177897,244.584769 148.489467,238.071907 C146.802327,231.55775 150.694236,224.902347 157.183333,223.208692 Z M307.951888,595.223179 C309.077508,599.566814 306.482902,604.002454 302.157268,605.132421 L153.323695,643.999664 C148.998061,645.129632 144.578195,642.52371 143.452575,638.18137 L141.414325,630.319546 C140.288704,625.974614 142.88331,621.538975 147.210236,620.410303 L296.042517,581.54306 C300.369443,580.413093 304.788018,583.019015 305.913638,587.360059 L307.951888,595.223179 Z M326.103804,439.360273 L328.142054,447.223393 C329.267674,451.567028 326.673068,456.002668 322.346143,457.131339 L118.681187,510.321435 C114.354262,511.451402 109.935686,508.84548 108.810066,504.504437 L106.771816,496.64002 C105.646196,492.296385 108.240802,487.860745 112.567727,486.732074 L316.232683,433.54457 C320.559608,432.413307 324.978184,435.016637 326.103804,439.360273 Z M304.005764,386.36196 L100.340807,439.549464 C96.0138823,440.678136 91.595307,438.07351 90.4696868,433.73117 L88.4314366,425.86805 C87.3058165,421.524414 89.9004225,417.090071 94.2273476,415.960103 L297.892304,362.772599 C302.219229,361.642632 306.637804,364.247258 307.763424,368.589598 L309.801675,376.454014 C310.927295,380.795058 308.332689,385.231993 304.005764,386.36196 Z M299.482629,530.269503 L134.983316,573.22899 C130.656391,574.357661 126.237815,571.753035 125.112195,567.410695 L123.073945,559.547575 C121.948325,555.20394 124.542931,550.7683 128.869856,549.638333 L293.367879,506.681438 C297.694804,505.550175 302.113379,508.156097 303.238999,512.498436 L305.27725,520.361557 C306.404161,524.703896 303.809554,529.140831 299.482629,530.269503 Z M447.548147,617.53744 L353.809291,255.814466 C348.182481,234.100176 326.084441,221.077045 304.453688,226.725585 L256.68712,239.200579 C257.816613,241.542151 258.753769,244.014602 259.431465,246.624411 C265.138307,268.648405 252.218202,290.741078 230.748805,296.348151 L129.950297,322.671722 C109.374167,328.045545 87.2193296,317.409341 80.3119978,297.224135 C79.0108223,293.422158 78.3073097,289.600744 78.1059373,285.836347 L30.290317,298.324298 C8.6595641,303.972838 -4.31346608,326.15622 1.31334373,347.869213 L95.0522,709.592187 C100.680301,731.307772 122.77705,744.330903 144.407803,738.681067 L418.573756,667.082354 C440.203218,661.433814 453.176248,639.251729 447.548147,617.53744 Z M134.217843,699.36417 L52.705906,384.823805 L326.870568,313.225093 L408.383795,627.765457 L134.217843,699.36417 Z" id="Shape"></path>
                </g>
            </g>
        </g>
    </g>
</svg>