<?xml version="1.0" encoding="UTF-8"?>
<svg width="740px" height="800px" viewBox="0 0 740 800" version="1.1" xmlns="http://www.w3.org/2000/svg" xmlns:xlink="http://www.w3.org/1999/xlink">
    <!-- Generator: Sketch 48.2 (47327) - http://www.bohemiancoding.com/sketch -->
    <title>glass</title>
    <desc>Created with Sketch.</desc>
    <defs></defs>
    <g id="Page-1" stroke="none" stroke-width="1" fill="none" fill-rule="evenodd" opacity="0.600000024">
        <g id="glass" fill="#010002" fill-rule="nonzero">
            <g id="Step-4">
                <g id="cheers">
                    <path d="M361.824991,195.985487 L110.992031,130 L107.216679,133.904145 C82.6915956,159.242839 64.7991207,191.568028 55.4784124,227.48888 C31.9057478,318.367613 69.3908321,408.869997 140.143147,441.229736 L81.9095583,665.584833 C37.0429241,655.723288 2.17607145,653.805765 0.102079014,661.921304 C-2.38131854,671.406501 40.7508598,690.959311 96.3662171,705.580113 C152.050217,720.235465 199.128129,724.413543 201.611527,714.893795 C203.721067,706.812806 172.460411,691.301108 128.511874,677.809349 L186.848427,453.179086 C263.724659,458.829239 339.511186,398.59632 362.914695,308.334551 C372.235403,272.414933 372.371463,235.363803 363.255457,201.224741 L361.824991,195.985487 Z M233.483839,390.448699 C233.483839,390.448699 316.75488,354.459981 311.992787,320.149403 L335.055534,326.210453 C335.055534,326.209219 325.769147,387.194834 233.483839,390.448699 Z M187.222285,220.640585 C143.206331,174.310323 111.978771,174.105491 95.6859182,179.412612 C101.910347,169.208034 108.986682,159.620421 116.843828,150.957018 L346.518878,211.360219 C350.498933,228.310676 351.893852,245.944728 350.941434,263.75153 C349.341812,264.196978 253.587591,290.563533 187.222285,220.640585 Z" id="Shape"></path>
                    <path d="M655.702031,748.242961 L602.41399,520.967743 C675.190798,489.905181 715.673773,400.77711 694.260968,309.482258 C685.723836,273.122984 668.29906,240.099411 643.807289,214.024907 L640.028559,210 L380.162359,268.891067 L378.587573,274.119604 C368.195749,308.174505 367.216078,345.360577 375.75321,381.685144 C397.305968,473.634493 474.351973,536.583936 554.198298,532.215666 L607.452297,759.215698 C561.861669,771.426771 529.216062,786.081052 531.175403,794.303166 C533.379347,803.899972 581.979594,801.079934 639.606178,788.042063 C697.303369,774.970722 742.158928,756.566721 739.91968,746.969916 C738.030946,738.74904 702.202984,739.642776 655.702031,748.242961 Z M615.25436,443.225188 C615.25436,443.225188 674.071175,372.156515 653.462784,343.845814 L677.3607,338.444977 C677.3607,338.411508 697.758531,397.02739 615.25436,443.225188 Z M492.617728,313.782351 C430.546692,293.176862 401.996284,307.658841 389.679162,320.008747 C390.483576,308.003443 392.408875,296.205148 395.487841,284.783685 L633.414205,230.845968 C645.065605,244.054901 654.72236,259.087252 662.279821,275.427357 C661.020244,276.493394 586.213487,344.878382 492.617728,313.782351 Z" id="Shape"></path>
                    <circle id="Oval" cx="515" cy="205" r="25"></circle>
                    <circle id="Oval" cx="585" cy="95" r="25"></circle>
                    <circle id="Oval" cx="530" cy="10" r="10"></circle>
                    <circle id="Oval" cx="480" cy="10" r="10"></circle>
                    <circle id="Oval" cx="325" cy="25" r="25"></circle>
                </g>
            </g>
        </g>
    </g>
</svg>