<?xml version="1.0" encoding="UTF-8"?>
<svg width="560px" height="450px" viewBox="0 0 560 450" version="1.1" xmlns="http://www.w3.org/2000/svg" xmlns:xlink="http://www.w3.org/1999/xlink">
    <!-- Generator: Sketch 48.2 (47327) - http://www.bohemiancoding.com/sketch -->
    <title>hotel</title>
    <desc>Created with Sketch.</desc>
    <defs></defs>
    <g id="Page-1" stroke="none" stroke-width="1" fill="none" fill-rule="evenodd">
        <g id="hotel" fill="#5F5F5F" fill-rule="nonzero">
            <path d="M151.351351,450 L250.270705,450 L250.270705,349.489676 L309.729295,349.489676 L309.729295,450 L408.648649,450 L408.648649,0 L151.351351,0 L151.351351,450 Z M298.049455,53.0326066 L357.50689,53.0326066 L357.50689,112.113718 L298.049455,112.113718 L298.049455,53.0326066 Z M298.049455,147.984597 L357.50689,147.984597 L357.50689,207.065708 L298.049455,207.065708 L298.049455,147.984597 Z M298.049455,242.934292 L357.50689,242.934292 L357.50689,302.015403 L298.049455,302.015403 L298.049455,242.934292 Z M202.491955,53.0326066 L261.94939,53.0326066 L261.94939,112.113718 L202.491955,112.113718 L202.491955,53.0326066 Z M202.491955,147.984597 L261.94939,147.984597 L261.94939,207.065708 L202.491955,207.065708 L202.491955,147.984597 Z M202.491955,242.934292 L261.94939,242.934292 L261.94939,302.015403 L202.491955,302.015403 L202.491955,242.934292 Z" id="Shape"></path>
            <path d="M423.783784,45 L423.783784,359.542548 L464.353319,359.542548 L464.353319,450 L560,450 L560,45 L423.783784,45 Z M510.55216,316.816064 L453.06035,316.816064 L453.06035,263.643714 L510.550933,263.643714 L510.550933,316.816064 L510.55216,316.816064 Z M510.55216,231.358556 L453.06035,231.358556 L453.06035,178.187341 L510.550933,178.187341 L510.550933,231.358556 L510.55216,231.358556 Z M510.55216,145.902183 L453.06035,145.902183 L453.06035,92.7309675 L510.550933,92.7309675 L510.550933,145.902183 L510.55216,145.902183 Z" id="Shape"></path>
            <path d="M0,450 L95.6466814,450 L95.6466814,359.542548 L136.216216,359.542548 L136.216216,45 L0,45 L0,450 Z M49.4490668,92.7309675 L106.93965,92.7309675 L106.93965,145.902183 L49.4490668,145.902183 L49.4490668,92.7309675 Z M49.4490668,178.187341 L106.93965,178.187341 L106.93965,231.358556 L49.4490668,231.358556 L49.4490668,178.187341 Z M49.4490668,263.641444 L106.93965,263.641444 L106.93965,316.812659 L49.4490668,316.812659 L49.4490668,263.641444 Z" id="Shape"></path>
        </g>
    </g>
</svg>