<?xml version="1.0" encoding="UTF-8"?>
<svg width="776px" height="682px" viewBox="0 0 776 682" version="1.1" xmlns="http://www.w3.org/2000/svg" xmlns:xlink="http://www.w3.org/1999/xlink">
    <!-- Generator: Sketch 48.2 (47327) - http://www.bohemiancoding.com/sketch -->
    <title>ice</title>
    <desc>Created with Sketch.</desc>
    <defs></defs>
    <g id="Page-1" stroke="none" stroke-width="1" fill="none" fill-rule="evenodd" opacity="0.649999976">
        <g id="ice" transform="translate(-2.000000, -6.000000)" fill="#000000" fill-rule="nonzero">
            <g id="Calculator">
                <g id="Group-16">
                    <g id="Group-14" transform="translate(0.000000, 250.000000)">
                        <path d="M14.0295216,136.174806 L173.324254,12.9457187 C182.423096,5.9069296 194.745638,4.69093053 205.044772,9.81551062 L370.815424,92.2986583 C381.007599,97.3700181 387.451172,107.773328 387.451172,119.157488 L387.451172,257.50188 C387.451172,264.777703 384.807007,271.805583 380.011006,277.276962 L248.232513,427.612674 C238.447611,438.775499 221.970115,441.103851 209.475347,433.089254 L45.4903404,327.903328 C38.6827785,323.536711 33.926653,316.606452 32.3004095,308.683979 L2.99852505,165.935742 C0.696965141,154.723371 4.976139,143.178428 14.0295216,136.174806 Z M52.3847847,165.140923 L189.660175,255.697563 L218.527363,360 L227.257832,255.697563 L325.919941,146.674126 L256.200269,199.974499 C226.857224,222.407124 187.538219,226.838647 153.938108,211.500151 L52.3847847,165.140923 Z" id="Path-17"></path>
                    </g>
                    <g id="Group-14-Copy" transform="translate(390.000000, 240.000000)">
                        <path d="M14.0295216,136.174806 L173.324254,12.9457187 C182.423096,5.9069296 194.745638,4.69093053 205.044772,9.81551062 L370.815424,92.2986583 C381.007599,97.3700181 387.451172,107.773328 387.451172,119.157488 L387.451172,257.50188 C387.451172,264.777703 384.807007,271.805583 380.011006,277.276962 L248.232513,427.612674 C238.447611,438.775499 221.970115,441.103851 209.475347,433.089254 L45.4903404,327.903328 C38.6827785,323.536711 33.926653,316.606452 32.3004095,308.683979 L2.99852505,165.935742 C0.696965141,154.723371 4.976139,143.178428 14.0295216,136.174806 Z M52.3847847,165.140923 L189.660175,255.697563 L218.527363,360 L227.257832,255.697563 L325.919941,146.674126 L256.200269,199.974499 C226.857224,222.407124 187.538219,226.838647 153.938108,211.500151 L52.3847847,165.140923 Z" id="Path-17"></path>
                    </g>
                    <g id="Group-14-Copy" transform="translate(190.000000, 0.000000)">
                        <path d="M387.451172,226.973916 C382.399764,227.692896 377.519368,229.700413 373.324254,232.945719 L219.181122,352.189571 L227.257832,255.697563 L325.919941,146.674126 L256.200269,199.974499 C226.857224,222.407124 187.538219,226.838647 153.938108,211.500151 L52.3847847,165.140923 L189.660175,255.697563 L215.018971,347.323537 C212.262456,340.904967 207.296916,335.523679 200.815424,332.298658 L35.044772,249.815511 C30.1606051,247.385277 24.821384,246.381007 19.5867238,246.747477 L2.99852505,165.935742 C0.696965141,154.723371 4.976139,143.178428 14.0295216,136.174806 L173.324254,12.9457187 C182.423096,5.9069296 194.745638,4.69093053 205.044772,9.81551062 L370.815424,92.2986583 C381.007599,97.3700181 387.451172,107.773328 387.451172,119.157488 L387.451172,226.973916 Z" id="Path-17"></path>
                    </g>
                </g>
            </g>
        </g>
    </g>
</svg>