<?xml version="1.0" encoding="UTF-8"?>
<svg width="340px" height="570px" viewBox="0 0 340 570" version="1.1" xmlns="http://www.w3.org/2000/svg" xmlns:xlink="http://www.w3.org/1999/xlink">
    <!-- Generator: Sketch 48.2 (47327) - http://www.bohemiancoding.com/sketch -->
    <title>soft-drink</title>
    <desc>Created with Sketch.</desc>
    <defs></defs>
    <g id="Page-1" stroke="none" stroke-width="1" fill="none" fill-rule="evenodd" opacity="0.600000024">
        <g id="soft-drink" fill="#000000" fill-rule="nonzero">
            <g id="Step-2">
                <g id="soft-drink">
                    <path d="M306.976744,22.5765619 L319.186047,22.5765619 C325.465116,22.5765619 330.465116,17.5724786 330.465116,11.2882809 C330.465116,5.0040833 325.465116,0 319.186047,0 L15.8139535,0 C9.53488372,0 4.53488372,5.0040833 4.53488372,11.2882809 C4.53488372,17.5724786 9.53488372,22.5765619 15.8139535,22.5765619 L33.4883721,22.5765619 L0,94.4957125 L0,532.411188 C0,553.24214 75.9302326,570 170,570 C264.069767,570 340,553.24214 340,532.411188 L340,94.6120866 L306.976744,22.5765619 Z M170.465116,419.295631 C119.883721,419.295631 79.1860465,361.341364 79.1860465,290.353205 C79.1860465,219.365047 120.348837,161.41078 170.465116,161.41078 C221.046512,161.41078 261.744186,219.365047 261.744186,290.353205 C261.744186,361.341364 221.046512,419.295631 170.465116,419.295631 Z" id="Shape"></path>
                </g>
            </g>
        </g>
    </g>
</svg>