<?xml version="1.0" encoding="UTF-8"?>
<svg width="270px" height="840px" viewBox="0 0 270 840" version="1.1" xmlns="http://www.w3.org/2000/svg" xmlns:xlink="http://www.w3.org/1999/xlink">
    <!-- Generator: Sketch 48.2 (47327) - http://www.bohemiancoding.com/sketch -->
    <title>Sparkling</title>
    <desc>Created with Sketch.</desc>
    <defs></defs>
    <g id="Page-1" stroke="none" stroke-width="1" fill="none" fill-rule="evenodd" opacity="0.600000024">
        <g id="Sparkling" fill="#000000" fill-rule="nonzero">
            <g id="Step-2">
                <g id="black-bottle">
                    <path d="M170.805624,309.514211 C170.805624,268.114446 173.70277,0 173.70277,0 L143.065805,0 L126.984548,0 L96.3503832,0 C96.3503832,0 99.2419304,268.114446 99.2419304,309.514211 C99.2419304,350.938246 0,586.831302 0,653.584121 C0,720.33694 0,840 0,840 L126.984548,840 L143.032215,840 L270,840 C270,840 269.999969,720.33694 269.999969,653.584121 C270.06435,586.831302 170.805624,350.940452 170.805624,309.514211 Z M110.136317,425.997935 C108.526792,437.329698 107.373532,453.658821 104.168478,472.96209 C98.4441658,511.643645 87.9556592,562.733655 76.9325102,613.441969 C74.071754,626.053409 71.3369605,638.742071 69.0780268,651.121845 C66.3796226,663.812713 64.283041,674.862064 63.9415417,686.80719 C62.5083644,711.083549 60.8512531,733.742662 58.7854624,753.149629 C56.7532617,772.580866 54.1528287,788.755545 52.7532414,800.111578 C51.02895,811.44334 49.7273339,817.927774 49.7273339,817.927774 C49.7273339,817.927774 48.3949268,811.44334 46.6874304,800.111578 C45.2878432,788.755545 42.7042052,772.57866 40.6720046,753.149629 C38.6062138,733.742662 36.9323075,711.057073 35.5019294,686.80719 C34.7713449,674.451685 35.8434287,660.48114 37.469749,647.89397 C39.4039786,635.024388 41.7636826,622.079791 44.2997346,609.157257 C55.1129455,557.683343 70.8694984,507.259647 85.064112,469.835706 C91.7793314,451.068578 99.2419305,435.741133 103.667425,424.870496 C108.434419,414.116794 111.701056,408.029502 111.701056,408.029502 C111.701056,408.029502 111.404343,414.615427 110.136317,425.997935 Z" id="Shape"></path>
                </g>
            </g>
        </g>
    </g>
</svg>