<?xml version="1.0" encoding="UTF-8"?>
<svg width="104px" height="157px" viewBox="0 0 104 157" version="1.1" xmlns="http://www.w3.org/2000/svg" xmlns:xlink="http://www.w3.org/1999/xlink">
    <!-- Generator: Sketch 48.2 (47327) - http://www.bohemiancoding.com/sketch -->
    <title>Group 2</title>
    <desc>Created with Sketch.</desc>
    <defs>
        <filter x="-4.1%" y="-4.0%" width="112.2%" height="110.7%" filterUnits="objectBoundingBox" id="filter-1">
            <feOffset dx="4" dy="6" in="SourceAlpha" result="shadowOffsetOuter1"></feOffset>
            <feColorMatrix values="0 0 0 0 0   0 0 0 0 0   0 0 0 0 0  0 0 0 0.0796818388 0" type="matrix" in="shadowOffsetOuter1" result="shadowMatrixOuter1"></feColorMatrix>
            <feMerge>
                <feMergeNode in="shadowMatrixOuter1"></feMergeNode>
                <feMergeNode in="SourceGraphic"></feMergeNode>
            </feMerge>
        </filter>
    </defs>
    <g id="Home" stroke="none" stroke-width="1" fill="none" fill-rule="evenodd" transform="translate(-538.000000, -843.000000)">
        <g id="Group-2" filter="url(#filter-1)" transform="translate(539.000000, 843.000000)">
            <g id="Group-4" transform="translate(31.869919, 65.775401) rotate(-20.000000) translate(-31.869919, -65.775401) translate(19.918699, 20.053476)">
                <path d="M3.36,91.4438503 L20.542439,91.4438503 C22.3981158,91.4438503 23.902439,89.939527 23.902439,88.0838503 L23.902439,54.4005804 C23.902439,52.3821662 23.6152756,50.3740173 23.0495805,48.436497 L17.5340374,29.5456177 C16.9236823,27.4551353 16.613848,25.2884483 16.613848,23.1106857 L16.613848,11.3719018 L17.3112096,11.3719018 C17.620489,11.3719018 17.8712096,11.1211812 17.8712096,10.8119018 L17.8712096,8.41944602 C17.8712096,8.11016656 17.620489,7.85944602 17.3112096,7.85944602 L16.613848,7.85944602 L16.613848,1.68 C16.613848,0.75216162 15.8616864,4.95692669e-16 14.933848,6.66133815e-16 L8.6233508,6.66133815e-16 C7.69551242,8.3657496e-16 6.9433508,0.75216162 6.9433508,1.68 L6.9433508,7.85944602 L6.76091671,7.85944602 C6.45163725,7.85944602 6.20091671,8.11016656 6.20091671,8.41944602 L6.20091671,10.8119018 C6.20091671,11.1211812 6.45163725,11.3719018 6.76091671,11.3719018 L6.9433508,11.3719018 L6.9433508,23.1754397 C6.9433508,25.3106714 6.64549969,27.4354658 6.0584077,29.4883996 L0.820191165,47.8053111 C0.276057122,49.7080303 -3.84433571e-14,51.6773519 -3.90798505e-14,53.6563472 L-4.4408921e-16,88.0838503 C-2.16834349e-16,89.939527 1.50432324,91.4438503 3.36,91.4438503 Z" id="Path-6" stroke="#D7592E" stroke-width="2.4" fill="#FFFFFF"></path>
                <polygon id="Path-7" stroke="#979797" stroke-width="0.56" fill="#D8D8D8" points="2.2234827 56.6615269 22.234827 56.6615269 22.234827 77.4187199 2.2234827 77.4187199"></polygon>
                <polygon id="Path-8" fill="#FFD4C5" points="11.1174135 14.0251304 11.1174135 2.24402087 8.8939308 2.24402087 8.8939308 14.0251304"></polygon>
            </g>
            <g id="Group-4-Copy" transform="translate(69.317073, 47.326203) scale(-1, 1) rotate(-10.000000) translate(-69.317073, -47.326203) translate(57.365854, 1.604278)">
                <path d="M3.36,91.4438503 L20.542439,91.4438503 C22.3981158,91.4438503 23.902439,89.939527 23.902439,88.0838503 L23.902439,54.4005804 C23.902439,52.3821662 23.6152756,50.3740173 23.0495805,48.436497 L17.5340374,29.5456177 C16.9236823,27.4551353 16.613848,25.2884483 16.613848,23.1106857 L16.613848,11.3719018 L17.3112096,11.3719018 C17.620489,11.3719018 17.8712096,11.1211812 17.8712096,10.8119018 L17.8712096,8.41944602 C17.8712096,8.11016656 17.620489,7.85944602 17.3112096,7.85944602 L16.613848,7.85944602 L16.613848,1.68 C16.613848,0.75216162 15.8616864,1.09773409e-15 14.933848,4.4408921e-16 L8.6233508,6.66133815e-16 C7.69551242,8.3657496e-16 6.9433508,0.75216162 6.9433508,1.68 L6.9433508,7.85944602 L6.76091671,7.85944602 C6.45163725,7.85944602 6.20091671,8.11016656 6.20091671,8.41944602 L6.20091671,10.8119018 C6.20091671,11.1211812 6.45163725,11.3719018 6.76091671,11.3719018 L6.9433508,11.3719018 L6.9433508,23.1754397 C6.9433508,25.3106714 6.64549969,27.4354658 6.0584077,29.4883996 L0.820191165,47.8053111 C0.276057122,49.7080303 -3.22167801e-14,51.6773519 -3.19744231e-14,53.6563472 L4.4408921e-16,88.0838503 C6.7134407e-16,89.939527 1.50432324,91.4438503 3.36,91.4438503 Z" id="Path-6" stroke="#D7592E" stroke-width="2.4" fill="#FFFFFF"></path>
                <polygon id="Path-7" fill="#FFD4C5" points="2.2234827 56.6615269 22.234827 56.6615269 22.234827 77.4187199 2.2234827 77.4187199"></polygon>
                <polygon id="Path-8" fill="#FFD4C5" points="11.1174135 14.0251304 11.1174135 2.24402087 8.8939308 2.24402087 8.8939308 14.0251304"></polygon>
            </g>
            <path d="M2.93913071,62.571545 L95.5638996,62.571545 L97.7787894,146.739427 C97.8136576,148.064451 96.7677791,149.166862 95.4427544,149.20173 C95.4217141,149.202284 95.4006675,149.202561 95.3796199,149.202561 L3.10488445,149.202561 C1.77940105,149.202561 0.70488445,148.128044 0.70488445,146.802561 C0.70488445,146.781337 0.705165974,146.760115 0.705728948,146.738899 L2.93913071,62.571545 Z" id="Path-4" stroke="#D7592E" stroke-width="2.4" fill="#FFFFFF"></path>
            <ellipse id="Oval-3" fill="#FFD4C5" cx="27.8861789" cy="77.4064171" rx="5.57723577" ry="5.21390374"></ellipse>
            <ellipse id="Oval-3-Copy" fill="#FFD4C5" cx="72.504065" cy="77.4064171" rx="5.57723577" ry="5.21390374"></ellipse>
            <path d="M27.7595518,78.0410016 C29.1112742,104.753757 37.178529,118.110135 51.9613161,118.110135 C66.7441033,118.110135 74.1354968,104.409434 74.1354968,77.0080336" id="Path-5" stroke="#D14111" stroke-width="3.2"></path>
            <polygon id="Path-9" fill="#FFD4C5" points="9.42714685 117.272101 5.7421875 144.413227 50.7335493 144.413227 10.6160442 140.838068"></polygon>
        </g>
    </g>
</svg>