<?xml version="1.0" encoding="UTF-8"?>
<svg width="124px" height="121px" viewBox="0 0 124 121" version="1.1" xmlns="http://www.w3.org/2000/svg" xmlns:xlink="http://www.w3.org/1999/xlink">
    <!-- Generator: Sketch 48.2 (47327) - http://www.bohemiancoding.com/sketch -->
    <title>credit-card</title>
    <desc>Created with Sketch.</desc>
    <defs>
        <filter x="-4.2%" y="-4.5%" width="110.2%" height="114.4%" filterUnits="objectBoundingBox" id="filter-1">
            <feOffset dx="4" dy="6" in="SourceAlpha" result="shadowOffsetOuter1"></feOffset>
            <feColorMatrix values="0 0 0 0 0   0 0 0 0 0   0 0 0 0 0  0 0 0 0.0796818388 0" type="matrix" in="shadowOffsetOuter1" result="shadowMatrixOuter1"></feColorMatrix>
            <feMerge>
                <feMergeNode in="shadowMatrixOuter1"></feMergeNode>
                <feMergeNode in="SourceGraphic"></feMergeNode>
            </feMerge>
        </filter>
        <rect id="path-2" x="18" y="29" width="100" height="66" rx="9"></rect>
    </defs>
    <g id="Home" stroke="none" stroke-width="1" fill="none" fill-rule="evenodd" transform="translate(-1117.000000, -873.000000)">
        <g id="credit-card" filter="url(#filter-1)" transform="translate(1119.000000, 875.000000)">
            <path d="M93.3752972,31.4078508 C95.1327245,31.4078508 95.6277744,29.0136533 94.0436146,28.2904061 L32.1871266,0.657377097 C28.4247472,-1.03851277 23.9940503,0.657377097 22.3108806,4.4731293 L0.6524464,53.4045399 C-1.03072334,57.1953526 0.6524464,61.6595333 4.43957832,63.3554232 L16.9148364,68.7922466 C18.4742437,69.4905542 20.2564234,68.3433345 20.2564234,66.6225051 L20.2564234,45.8478542 C20.2564234,37.8921356 26.6673199,31.4327903 34.5633662,31.4327903 L93.3752972,31.4327903 L93.3752972,31.4078508 Z" id="Shape" stroke="#D14111" stroke-width="3" fill="#FFD4C5" fill-rule="nonzero"></path>
            <g id="Rectangle-12">
                <use fill="#FFFFFF" fill-rule="evenodd" xlink:href="#path-2"></use>
                <rect stroke="#D14111" stroke-width="3" x="19.5" y="30.5" width="97" height="63" rx="9"></rect>
            </g>
            <rect id="Rectangle-13" fill="#FFD4C5" x="21" y="73" width="94" height="12"></rect>
            <rect id="Rectangle-13-Copy" fill="#FFD4C5" x="26" y="37" width="21" height="14" rx="4"></rect>
            <path d="M70.5,72 C59.7328244,72 51,80.7328244 51,91.5 C51,102.267176 59.7328244,111 70.5,111 C81.2671756,111 90,102.267176 90,91.5 C90,80.7328244 81.2671756,72 70.5,72 Z" id="Shape" stroke="#D14111" stroke-width="3" fill="#FFFFFF" fill-rule="nonzero"></path>
            <path d="M76.1068702,99.1908397 C75.2633588,100.232824 74.1469466,100.927481 72.8568702,101.274809 C72.2862595,101.423664 72.0381679,101.721374 72.0629771,102.316794 C72.0877863,102.887405 72.0629771,103.458015 72.0629771,104.053435 C72.0629771,104.574427 71.7900763,104.847328 71.2938931,104.847328 C70.6736641,104.872137 70.0534351,104.872137 69.4332061,104.847328 C68.8874046,104.847328 68.639313,104.524809 68.639313,104.003817 C68.639313,103.582061 68.639313,103.160305 68.639313,102.73855 C68.639313,101.820611 68.5896947,101.770992 67.6965649,101.622137 C66.5553435,101.448473 65.4389313,101.175573 64.3969466,100.679389 C63.5782443,100.282443 63.4790076,100.083969 63.7270992,99.2156489 C63.9007634,98.5706107 64.0744275,97.9255725 64.2729008,97.3053435 C64.4961832,96.5610687 64.6946565,96.4866412 65.389313,96.8339695 C66.5553435,97.4293893 67.7709924,97.7767176 69.0610687,97.9255725 C69.879771,98.0248092 70.6984733,97.9503817 71.4675573,97.6030534 C72.9064885,96.9828244 73.129771,95.3206107 71.9141221,94.3282443 C71.4923664,93.980916 71.0458015,93.7328244 70.5496183,93.5343511 C69.2843511,92.9885496 67.9694656,92.5667939 66.8034351,91.8473282 C64.8683206,90.7061069 63.6526718,89.1183206 63.8015267,86.7614504 C63.9503817,84.1068702 65.4637405,82.4694656 67.8950382,81.5763359 C68.8874046,81.2041985 68.9122137,81.2290076 68.9122137,80.1870229 C68.9122137,79.8396947 68.9122137,79.4675573 68.9122137,79.120229 C68.9370229,78.3263359 69.0610687,78.2022901 69.8549618,78.1774809 C70.1030534,78.1774809 70.351145,78.1774809 70.5744275,78.1774809 C72.2614504,78.1774809 72.2614504,78.1774809 72.2614504,79.8645038 C72.2614504,81.0553435 72.2614504,81.0553435 73.4522901,81.2290076 C74.3454198,81.3778626 75.2137405,81.6259542 76.0572519,81.9980916 C76.528626,82.1965649 76.7022901,82.519084 76.5534351,83.0152672 C76.3549618,83.7347328 76.1564885,84.4790076 75.9083969,85.1736641 C75.6851145,85.8435115 75.4618321,85.9427481 74.8167939,85.6450382 C73.5019084,85 72.1374046,84.7519084 70.6984733,84.8263359 C70.3263359,84.851145 69.9541985,84.9007634 69.6068702,85.0496183 C68.3664122,85.5954198 68.1431298,86.9847328 69.2099237,87.8282443 C69.7557252,88.25 70.351145,88.5725191 70.9961832,88.8454198 C72.1125954,89.2919847 73.2041985,89.7385496 74.2709924,90.3339695 C77.5458015,92.1450382 78.4637405,96.3377863 76.1068702,99.1908397 Z" id="Path" fill="#FFD4C5"></path>
        </g>
    </g>
</svg>