<?xml version="1.0" encoding="UTF-8"?>
<svg width="28px" height="96px" viewBox="0 0 28 96" version="1.1" xmlns="http://www.w3.org/2000/svg" xmlns:xlink="http://www.w3.org/1999/xlink">
    <!-- Generator: Sketch 51.1 (57501) - http://www.bohemiancoding.com/sketch -->
    <title>Group 4 Copy</title>
    <desc>Created with Sketch.</desc>
    <defs></defs>
    <g id="Calculator" stroke="none" stroke-width="1" fill="none" fill-rule="evenodd">
        <g id="Home" transform="translate(-708.000000, -851.000000)">
            <g id="Group-4-Copy" transform="translate(722.000000, 899.000000) scale(-1, 1) translate(-722.000000, -899.000000) translate(709.000000, 852.000000)">
                <path d="M2.352,94 L23.648,94 C24.9469737,94 26,92.9469737 26,91.648 L26,58.100141 C26,56.68988 25.7997329,55.2867644 25.4051963,53.9328157 L18.7135598,30.9688283 C18.2878756,29.5079888 18.0717979,27.994101 18.0717979,26.4725035 L18.0717979,12.3941086 L19.0474994,12.3941086 C19.263995,12.3941086 19.4394994,12.2186042 19.4394994,12.0021086 L19.4394994,8.95792234 C19.4394994,8.74142672 19.263995,8.56592234 19.0474994,8.56592234 L18.0717979,8.56592234 L18.0717979,1.176 C18.0717979,0.526513134 17.5452848,1.02735803e-16 16.8957979,2.22044605e-16 L8.72866525,0 C8.07917839,1.19308802e-16 7.55266525,0.526513134 7.55266525,1.176 L7.55266525,8.56592234 L7.13707879,8.56592234 C6.92058317,8.56592234 6.74507879,8.74142672 6.74507879,8.95792234 L6.74507879,12.0021086 C6.74507879,12.2186042 6.92058317,12.3941086 7.13707879,12.3941086 L7.55266525,12.3941086 L7.55266525,26.5177529 C7.55266525,28.0096286 7.34494612,29.4942391 6.93549041,30.9288258 L0.572015711,53.2241704 C0.19252017,54.5537874 -4.74511316e-14,55.9297678 -4.97379915e-14,57.3124818 L-3.55271368e-14,91.648 C-4.34441014e-14,92.9469737 1.05302627,94 2.352,94 Z" id="Path-6" stroke="#D7592E" stroke-width="1.68" fill="#FFFFFF"></path>
                <polygon id="Path-7" fill="#FFD4C5" points="2 62 24 62 24 85 2 85"></polygon>
                <polygon id="Path-8" fill="#FFD4C5" points="12 15 12 2 10 2 10 15"></polygon>
            </g>
        </g>
    </g>
</svg>