<?xml version="1.0" encoding="UTF-8"?>
<svg width="600px" height="780px" viewBox="0 0 600 780" version="1.1" xmlns="http://www.w3.org/2000/svg" xmlns:xlink="http://www.w3.org/1999/xlink">
    <!-- Generator: Sketch 48.2 (47327) - http://www.bohemiancoding.com/sketch -->
    <title>superior</title>
    <desc>Created with Sketch.</desc>
    <defs></defs>
    <g id="Page-1" stroke="none" stroke-width="1" fill="none" fill-rule="evenodd">
        <g id="superior" fill="#595959" fill-rule="nonzero">
            <path d="M454.798099,425.142223 L391.684962,408.969584 C417.797293,385.189309 438.907262,352.467924 452.980574,316.378665 C473.890448,312.497915 493.499708,295.470486 496.651196,256.355267 C499.685963,218.556426 487.563572,202.965045 471.989551,196.725074 C471.572687,184.638334 470.071978,173.423482 469.45502,162.824078 C462.418364,43.4098285 403.874052,-9.10850707 309.229358,1.28574685 C296.8235,2.65341184 284.684434,3.43981921 272.361949,1.38832172 C222.93861,-6.9373389 171.347581,31.97273 146.219048,72.5410928 C113.687019,125.059428 126.109552,195.579654 126.026179,197.887589 C111.769447,204.811393 101.147764,220.693403 104.015785,256.355267 C107.067226,294.205396 125.509268,311.386687 145.652113,315.951269 C160.025568,352.1602 181.535725,385.206405 207.898174,409.19183 L145.301948,425.19351 C59.8616013,447.127437 0,525.46045 0,615.743435 L0,723.788969 C0,754.458856 24.7450185,780 54.6591446,780 L545.557624,780 C575.471751,780 600,754.458856 600,723.806065 L600,615.760531 C599.983325,525.443354 540.221771,447.07615 454.798099,425.142223 Z M159.008421,216.265587 C159.008421,211.239418 159.7421,206.298729 161.176111,201.47771 C165.044604,188.621659 170.013618,177.646147 174.932607,168.722133 C183.453297,153.284615 197.259817,141.625271 213.667565,136.017844 C214.167801,135.846886 214.668038,135.675928 215.151599,135.50497 C220.92099,133.470568 227.27399,135.727215 230.592224,140.958534 C233.910458,146.189852 233.326849,153.079465 229.174888,157.644047 C228.391185,158.498837 227.607481,159.353628 226.807103,160.174227 C224.305922,162.824078 223.738988,166.824498 225.406442,170.089798 C227.073896,173.355098 230.608899,175.150159 234.143901,174.551805 C268.726899,168.705037 329.32218,153.147848 374.8937,112.853018 C386.982742,102.185231 405.107968,103.245172 415.929745,115.263528 C426.184587,126.683531 432.821054,140.855959 435.088792,156.207998 C437.639997,173.355098 438.990634,193.237528 438.990634,216.265587 C438.990634,305.727973 376.544479,413.790603 298.974516,413.790603 C221.454576,413.790603 159.008421,305.745069 159.008421,216.265587 Z M312.364172,745.808375 L288.252786,745.808375 L173.481922,453.469984 L245.165773,434.972315 C262.040408,443.28088 280.11561,447.948036 299.007865,447.948036 C318.583776,447.948036 337.192563,443.178305 354.450713,434.681686 L427.351805,453.623846 L312.364172,745.808375 Z M309.878034,559.015728 C371.002946,474.119736 305.301048,470 293.78476,470 C281.825538,470.147133 216.12364,474.119736 277.248552,559.015728 L240,771.5931 L358.183594,771.5931 L309.878034,559.015728 Z" id="Shape"></path>
        </g>
    </g>
</svg>