<?xml version="1.0" encoding="UTF-8"?>
<svg width="390px" height="510px" viewBox="0 0 390 510" version="1.1" xmlns="http://www.w3.org/2000/svg" xmlns:xlink="http://www.w3.org/1999/xlink">
    <!-- Generator: Sketch 48.2 (47327) - http://www.bohemiancoding.com/sketch -->
    <title>supervisor</title>
    <desc>Created with Sketch.</desc>
    <defs></defs>
    <g id="Page-1" stroke="none" stroke-width="1" fill="none" fill-rule="evenodd">
        <g id="supervisor" fill="#595959" fill-rule="nonzero">
            <path d="M295.618764,277.977607 L254.595226,267.40319 C271.568241,251.854548 285.28972,230.459797 294.437373,206.862973 C308.028791,204.32556 320.77481,193.192241 322.823278,167.616906 C324.795876,142.902279 316.916322,132.707914 306.793208,128.627933 C306.522247,120.725065 305.546786,113.392276 305.145763,106.461897 C300.571937,28.3833494 262.518134,-5.95556231 200.999083,0.840680632 C192.935275,1.73492313 185.044882,2.24911256 177.035267,0.907748819 C144.910096,-4.53595236 111.375928,20.9052466 95.0423811,47.4307145 C73.8965623,81.7696262 81.9712086,127.879005 81.9170164,129.388039 C72.6501403,133.915142 65.7460467,144.299533 67.6102604,167.616906 C69.593697,192.365067 81.5810244,203.598988 94.6738738,206.583522 C104.016619,230.258592 117.998221,251.865726 135.133813,267.548504 L94.4462663,278.011141 C38.9100409,292.352555 0,343.570294 0,402.601477 L0,473.246634 C0,493.300021 16.084262,510 35.528444,510 L354.612456,510 C374.056638,510 390,493.300021 390,473.257812 L390,402.612655 C389.989162,343.559116 351.144151,292.319021 295.618764,277.977607 Z M67.480199,487.643938 L35.5176055,487.643938 C28.0282356,487.643938 21.6552261,480.981831 21.6552261,473.257812 L21.6552261,402.612655 C21.6552261,366.395834 39.6037017,333.733627 67.480199,314.462701 L67.480199,487.643938 Z M103.355473,141.404422 C103.355473,138.118081 103.832365,134.88763 104.764472,131.735426 C107.278993,123.329546 110.508851,116.15325 113.706195,110.318318 C119.244643,100.224556 128.218881,92.6011384 138.883917,88.9347442 C139.209071,88.8229639 139.534224,88.7111836 139.84854,88.5994033 C143.598644,87.2692176 147.728094,88.7447177 149.884946,92.1651952 C152.041798,95.5856727 151.662452,100.090419 148.963677,103.074954 C148.45427,103.633855 147.944863,104.192757 147.424617,104.729302 C145.798849,106.461897 145.430342,109.077556 146.514187,111.21256 C147.598032,113.347564 149.895784,114.521258 152.193536,114.130026 C174.672484,110.30714 214.059417,100.135131 243.680905,73.788512 C251.538782,66.8134205 263.320179,67.5064585 270.354334,75.3646144 C277.019982,82.8315392 281.333685,92.098127 282.807715,102.135999 C284.465998,113.347564 285.343912,126.347615 285.343912,141.404422 C285.343912,199.89906 244.753912,270.555395 194.333435,270.555395 C143.945474,270.555395 103.355473,199.910238 103.355473,141.404422 Z M203.036712,487.643938 L187.364311,487.643938 L112.763249,296.499605 L159.357752,284.404975 C170.326265,289.837498 182.075147,292.889101 194.355112,292.889101 C207.079454,292.889101 219.175166,289.77043 230.392963,284.214949 L277.778673,296.600207 L203.036712,487.643938 Z M368.333935,473.257812 C368.333935,480.981831 362.090987,487.643938 354.601617,487.643938 L323.321846,487.643938 L323.321846,314.943356 C350.797321,334.270172 368.323097,366.675284 368.323097,402.601477 L368.323097,473.257812 L368.333935,473.257812 Z" id="Shape"></path>
            <circle id="Oval" cx="195" cy="375" r="15"></circle>
            <circle id="Oval" cx="195" cy="420" r="15"></circle>
            <path d="M226.197452,300.412664 L202.674799,306.712025 C202.308865,306.79658 201.954367,306.881135 201.576998,306.933982 C197.769005,303.847718 192.828904,301.797255 187.397081,301.797255 C181.965258,301.797255 177.025158,303.837149 173.217164,306.933982 C172.851231,306.881135 172.485297,306.79658 172.130799,306.712025 L148.688194,300.402095 C141.666848,298.531312 135,303.424942 135,310.178787 L135,334.826621 C135,341.601606 141.678284,346.474098 148.722501,344.592745 L173.205729,337.997441 C177.013723,341.125983 181.953823,343.070752 187.408517,343.218724 C192.874646,343.070752 197.826182,341.125983 201.645611,337.997441 L226.186016,344.592745 C233.207362,346.474098 240,341.601606 240,334.826621 L240,310.178787 C239.988565,303.414373 233.230233,298.541881 226.197452,300.412664 Z" id="Shape"></path>
        </g>
    </g>
</svg>