<?xml version="1.0" encoding="UTF-8"?>
<svg width="770px" height="540px" viewBox="0 0 770 540" version="1.1" xmlns="http://www.w3.org/2000/svg" xmlns:xlink="http://www.w3.org/1999/xlink">
    <!-- Generator: Sketch 48.2 (47327) - http://www.bohemiancoding.com/sketch -->
    <title>truck</title>
    <desc>Created with Sketch.</desc>
    <defs></defs>
    <g id="Page-1" stroke="none" stroke-width="1" fill="none" fill-rule="evenodd">
        <g id="truck" fill="#5F5F5F" fill-rule="nonzero">
            <path d="M27.0179412,359.792013 L27.0179412,32.8916612 C27.0179412,14.7264852 41.7750163,0 59.9807353,0 L387.419461,0 C405.623922,0 420.380997,14.7264852 420.380997,32.8916612 L420.380997,359.793268 C420.380997,365.848327 415.46281,370.757156 409.393399,370.757156 L38.0055392,370.757156 C31.9361275,370.757156 27.0179412,365.848327 27.0179412,359.792013 Z M291.434935,471.781095 C291.434935,509.457295 260.824918,540 223.068497,540 C185.312075,540 154.702059,509.457295 154.702059,471.781095 C154.702059,434.10364 185.312075,403.56219 223.068497,403.56219 C260.824918,403.56219 291.434935,434.10364 291.434935,471.781095 Z M257.250458,471.781095 C257.250458,452.942995 241.946078,437.671643 223.067239,437.671643 C204.188399,437.671643 188.882761,452.942995 188.882761,471.781095 C188.882761,490.619195 204.188399,505.891803 223.067239,505.891803 C241.946078,505.891803 257.250458,490.619195 257.250458,471.781095 Z M164.184886,403.560935 L10.987598,403.560935 C4.91944444,403.560935 0,408.469763 0,414.524822 L0,447.788098 C0,453.843156 4.91944444,458.751985 10.987598,458.751985 L133.782467,458.751985 C136.988284,436.801613 148.091634,417.412368 164.184886,403.560935 Z M649.13768,471.781095 C649.13768,509.457295 618.527663,540 580.771242,540 C543.013562,540 512.404804,509.457295 512.404804,471.781095 C512.404804,434.10364 543.013562,403.56219 580.771242,403.56219 C618.527663,403.560935 649.13768,434.10364 649.13768,471.781095 Z M614.955719,471.781095 C614.955719,452.942995 599.650082,437.671643 580.771242,437.671643 C561.891144,437.671643 546.588023,452.942995 546.588023,471.781095 C546.588023,490.619195 561.892402,505.891803 580.771242,505.891803 C599.650082,505.891803 614.955719,490.619195 614.955719,471.781095 Z M770,414.524822 L770,447.788098 C770,453.843156 765.080556,458.751985 759.012402,458.751985 L670.054755,458.751985 C663.69219,415.209045 626.137075,381.633161 580.773758,381.633161 C535.401634,381.633161 497.845261,415.2103 491.482696,458.751985 L312.354526,458.751985 C309.147451,436.802868 298.045359,417.412368 281.952108,403.560935 L451.7975,403.560935 L451.7975,89.9596162 C451.7975,77.8494989 461.636389,68.0318421 473.772696,68.0318421 L577.502516,68.0318421 C606.709673,68.0318421 634.008186,82.5084918 650.350556,106.662187 L717.222288,205.492847 C727.03098,219.989584 732.272516,237.081346 732.272516,254.573599 L732.272516,403.560935 L759.012402,403.560935 C765.080556,403.560935 770,408.469763 770,414.524822 Z M658.536209,208.023844 L605.062729,132.20316 C603.004363,129.285483 599.652598,127.549189 596.076879,127.549189 L512.666503,127.549189 C506.599608,127.549189 501.678905,132.458018 501.678905,138.513076 L501.678905,214.33376 C501.678905,220.390074 506.59835,225.297647 512.666503,225.297647 L649.552876,225.297647 C658.45317,225.297647 663.659477,215.287906 658.536209,208.023844 Z" id="Shape"></path>
        </g>
    </g>
</svg>