<?xml version="1.0" encoding="UTF-8"?>
<svg width="924px" height="927px" viewBox="0 0 924 927" version="1.1" xmlns="http://www.w3.org/2000/svg" xmlns:xlink="http://www.w3.org/1999/xlink">
    <!-- Generator: Sketch 48.2 (47327) - http://www.bohemiancoding.com/sketch -->
    <title>fresh-vendor</title>
    <desc>Created with Sketch.</desc>
    <defs></defs>
    <g id="Page-1" stroke="none" stroke-width="1" fill="none" fill-rule="evenodd" opacity="0.600000024">
        <g id="fresh-vendor" fill="#000000" fill-rule="nonzero">
            <path d="M595.001888,562.517202 C595.001888,568.855432 600.094342,574 606.370693,574 L639.629307,574 C645.907546,574 651,568.857339 651,562.517202 L651,503 L595,503 L595,562.517202 L595.001888,562.517202 Z" id="Shape"></path>
            <path d="M229.37458,581.024117 C234.080608,584.407557 240.642562,583.339911 244.022381,578.631514 C247.419473,573.923118 246.319737,567.357861 241.646336,563.95906 C236.926873,560.592902 230.363,561.67591 226.967827,566.353583 C223.601443,571.058139 224.651278,577.642597 229.37458,581.024117 Z" id="Shape"></path>
            <path d="M890.923187,860.809808 L883.141412,860.809808 L883.141412,308.895303 C873.499066,311.529323 863.566539,313.034207 853.544872,313.034207 C840.902095,313.034207 828.595017,310.851841 817.006753,306.876141 L817.006753,761.961941 L805.824363,761.961941 C807.438375,755.367402 807.150091,748.235812 804.54605,741.41165 L721.679531,524.160026 C715.811431,508.803765 701.442743,502.871527 684.629328,502.871527 C682.048047,502.871527 674.366792,502.871527 674.366792,502.871527 L674.366792,594.386646 L674.366792,711.28552 L714.920026,711.28552 L715.102101,701.165038 L738.290008,761.961941 L715.011064,761.961941 L714.920026,735.540139 L687.30544,735.540139 L687.30544,761.961941 L558.377942,761.961941 L558.377942,735.540139 L530.943533,735.540139 L530.943533,761.961941 L507.399063,761.961941 L530.949223,700.233263 L530.949223,711.28552 L571.398144,711.28552 L571.398144,594.219647 L571.398144,502.871527 C571.398144,502.871527 563.658094,502.871527 561.076813,502.871527 C540.475876,502.871527 529.879537,508.803765 524.028507,524.160026 L441.146815,741.41165 C438.542774,748.235812 438.25449,755.3693 439.868502,761.961941 L419.897238,761.961941 L419.897238,304.420505 C412.056668,301.198196 404.697836,297.118121 397.837811,292.301736 C379.344004,305.219441 357.072157,313.017127 332.860082,313.017127 C329.06687,313.017127 325.245208,312.838743 321.52786,312.462996 C301.75574,310.489379 283.516078,303.126268 267.685106,292 C249.043363,305.115067 226.650134,313.034207 202.633409,313.034207 C195.367511,313.034207 187.94609,312.295998 180.333113,310.823376 C164.320067,307.627634 149.875514,301.07864 137.297221,292.225827 C118.590994,305.297247 96.1237967,313.034207 72.410529,313.034207 C61.5467686,313.034207 50.7588724,311.423052 40.4489209,308.396206 L40.4489209,860.794626 L33.0730193,860.794626 C24.3031122,860.794626 15.8897669,864.288308 9.69165781,870.493817 C3.49165206,876.69553 0,885.111869 0,893.888773 C0,912.167506 14.8087014,926.982921 33.0749159,926.982921 L40.4508176,926.982921 L40.4508176,927 L419.897238,927 L817.010546,927 L883.145205,927 L890.926981,927 C899.698784,927 908.110233,923.506318 914.312135,917.302707 C920.508348,911.100994 924,902.682757 924,893.903955 C923.998103,875.625222 909.193195,860.809808 890.923187,860.809808 Z M349.785396,368.561172 C355.562459,365.458418 362.815081,367.642681 365.916032,373.455363 C369.032156,379.252864 366.818817,386.481238 361.011408,389.595379 C355.234346,392.698133 348.010173,390.51387 344.878876,384.704982 C341.779821,378.907481 343.993161,371.663926 349.785396,368.561172 Z M332.617317,448.137804 C338.394379,445.035049 345.647001,447.219312 348.746056,453.031995 C351.86218,458.829496 349.650737,466.054074 343.839536,469.170112 C338.060576,472.272867 330.840197,470.088604 327.7089,464.275921 C324.611742,458.480318 326.823185,451.23866 332.617317,448.137804 Z M324.429668,531.145493 C328.359436,538.461161 325.588494,547.602425 318.27518,551.545865 C310.933418,555.462736 301.784189,552.690183 297.854421,545.357436 C293.943619,538.024688 296.710768,528.883424 304.056323,524.970348 C311.382913,521.026909 320.503693,523.780484 324.429668,531.145493 Z M289.219173,398.358999 C296.302997,394.550297 305.10894,397.245044 308.883186,404.323498 C312.691572,411.415237 310.030633,420.207322 302.943016,424.017922 C295.855398,427.796261 287.053249,425.147059 283.25814,418.040139 C279.4801,410.976866 282.146728,402.154417 289.219173,398.358999 Z M260.041783,473.551923 C267.1294,469.743221 275.93155,472.437967 279.709589,479.516422 C283.516078,486.604365 280.853243,495.400246 273.765625,499.208948 C266.678008,502.989185 257.875859,500.339983 254.082646,493.233063 C250.304606,486.171687 252.969338,477.345443 260.041783,473.551923 Z M352.192189,645.695004 L210.953821,805.535238 C207.29906,809.660857 194.464726,819.551716 179.578264,820.999668 C166.00615,822.320474 152.976465,815.834104 148.399954,812.552966 L97.1176183,775.650116 C90.9024397,771.179114 86.6426621,765.214614 83.3482571,758.785176 C76.2758125,745.007809 75.6442427,728.325049 83.8603408,714.082743 L190.339607,529.232602 C194.402138,522.171227 201.195781,516.810199 209.224116,515.455235 C219.608035,513.70365 229.132791,518.087357 232.108566,520.227973 C260.944567,540.966137 347.435501,603.205299 347.435501,603.205299 C354.043277,607.962856 358.329607,615.295603 359.249461,623.396923 C360.154142,631.498243 357.595621,639.597665 352.192189,645.695004 Z M376.421334,533.673241 C370.642375,536.775996 363.420098,534.591733 360.288801,528.77905 C357.189747,522.981549 359.40119,515.741789 365.195322,512.639035 C370.974281,509.538178 378.225006,511.720544 381.325958,517.533226 C384.440185,523.330727 382.228742,530.555306 376.421334,533.673241 Z" id="Shape"></path>
            <path d="M202.94199,661.540975 C196.858744,657.186334 188.378723,658.567859 184.001753,664.620071 C181.237852,668.416425 181.013392,673.089005 182.552275,677.173018 L130.591695,678.478843 L103.409213,725.40336 C96.8865586,736.66373 99.9681276,750.868829 110.561497,758.467213 L161.997068,795.255505 C166.343602,798.361096 171.447213,800 176.773382,800 C184.049309,800 190.97523,796.905764 195.787804,791.485646 L300,674.230182 L207.771683,676.542816 C209.523612,671.120806 207.832554,665.026959 202.94199,661.540975 Z M150.165365,711.408328 C154.557552,705.356116 163.039475,703.959452 169.120819,708.331125 C175.20026,712.685765 176.59077,721.122527 172.213801,727.176632 C167.850147,733.228844 159.368223,734.608476 153.258347,730.238695 C147.192222,725.929475 145.788396,717.475681 150.165365,711.408328 Z M174.327149,771.394875 C170.990684,776.01825 164.488954,777.098867 159.809535,773.764284 C155.130115,770.39942 154.07249,763.945998 157.408954,759.29045 C160.791071,754.650042 167.281388,753.586458 171.974123,756.947536 C176.605988,760.268872 177.676928,766.754467 174.327149,771.394875 Z M200.571845,755.795004 C198.397626,758.826788 194.157616,759.504303 191.125504,757.337391 C188.07437,755.161017 187.366751,750.925604 189.571404,747.89382 C191.758938,744.892316 195.985633,744.184522 199.032962,746.362788 C202.084096,748.539162 202.774596,752.759435 200.571845,755.795004 Z M211.349727,700.82358 C214.562548,696.391347 220.767535,695.37129 225.233908,698.569614 C229.685063,701.783078 230.71035,707.939377 227.495627,712.382965 C224.296121,716.830339 218.093037,717.835256 213.611447,714.636932 C209.129856,711.453748 208.135004,705.267169 211.349727,700.82358 Z" id="Shape"></path>
            <path d="M250.86282,656.896708 C258.27237,662.210999 268.565843,660.534104 273.894251,653.135591 C279.222659,645.719946 277.518177,635.435879 270.13526,630.106361 C262.740928,624.790166 252.417018,626.465158 247.119047,633.848444 C241.790639,641.264088 243.451367,651.563383 250.86282,656.896708 Z" id="Shape"></path>
            <path d="M54.5162777,261.263502 C60.7355817,263.114997 67.0156175,264 73.1874749,264 C101.226534,264 127.139985,245.761737 135.5722,217.55345 L138.992153,206.110948 C141.326527,226.860195 153.476659,245.172366 171.680982,255.400121 C177.524508,258.676716 183.787463,261.352571 190.714671,262.734086 C195.007642,263.592557 199.28543,264 203.515771,264 C233.946141,264 261.155833,242.58937 267.329589,211.644586 L268.912408,203.734516 C270.521798,225.806529 283.201435,245.219743 302.009278,255.712809 C309.583658,259.936945 318.091787,262.749246 327.262272,263.666466 C329.461897,263.878715 331.64634,263.984839 333.796621,263.984839 C366.861228,263.984839 395.202048,238.933758 398.546086,205.387027 L399.026246,200.56215 C399.627869,224.256353 412.924312,244.601947 432.381226,255.472134 C441.77376,260.734775 452.451149,263.984839 463.999659,263.984839 C475.551964,263.984839 486.227455,260.734775 495.63707,255.472134 C515.092086,244.586786 528.416997,224.214661 528.99205,200.488242 L529.47221,205.387027 C532.831431,238.933758 561.141885,263.984839 594.221675,263.984839 C596.373854,263.984839 598.558297,263.878715 600.756024,263.666466 C609.928407,262.749246 618.436536,259.936945 626.010916,255.712809 C644.79978,245.233009 657.466132,225.836851 659.105888,203.795159 L660.671627,211.644586 C666.845382,242.58937 694.055074,264 724.485444,264 C728.700602,264 732.993573,263.592557 737.286544,262.734086 C744.211854,261.352571 750.49189,258.674821 756.320234,255.400121 C774.539739,245.174261 786.674688,226.860195 789.009063,206.110948 L792.429016,217.55345 C800.859332,245.776897 826.7576,264 854.811842,264 C860.985598,264 867.263736,263.113102 873.484937,261.263502 C907.950168,250.977001 927.557013,214.743044 917.257299,180.326471 L876.075523,42.6431217 C868.499246,17.3362047 845.206747,0 818.76569,0 L109.252606,0 C82.811549,0 59.5152545,17.3362047 51.9408747,42.6279611 L10.7439163,180.326471 C0.444202206,214.743044 20.035864,250.977001 54.5162777,261.263502 Z" id="Shape"></path>
            <ellipse id="Oval" cx="624" cy="389.5" rx="72" ry="83.5"></ellipse>
            <circle id="Oval" cx="191.5" cy="600.5" r="17.5"></circle>
        </g>
    </g>
</svg>