<?xml version="1.0" encoding="UTF-8"?>
<svg width="310px" height="920px" viewBox="0 0 310 920" version="1.1" xmlns="http://www.w3.org/2000/svg" xmlns:xlink="http://www.w3.org/1999/xlink">
    <!-- Generator: Sketch 48.2 (47327) - http://www.bohemiancoding.com/sketch -->
    <title>vodka</title>
    <desc>Created with Sketch.</desc>
    <defs></defs>
    <g id="Page-1" stroke="none" stroke-width="1" fill="none" fill-rule="evenodd" opacity="0.600000024">
        <g id="vodka" fill="#010002" fill-rule="nonzero">
            <g id="Step-2">
                <g id="glass-and-bottle-of-wine">
                    <path d="M218.695957,151.513971 C218.695957,75.0256202 218.695957,56.4108639 218.695957,95.6697026 L91.3521778,95.6697026 C91.3521778,48.0519056 91.3521778,66.6830625 91.3521778,151.563173 C91.3521778,278.88334 0,231.516422 0,295.774232 L0,398.754016 L0,727.078956 L0,889.999993 C8.29660816e-14,906.568535 13.4314575,919.999993 30,919.999993 L280,920 C296.568542,920 310,906.568543 310,890 C310,889.999998 310,889.999995 310,889.999993 L309.999954,727.078956 L309.999954,398.754016 L309.999954,295.774232 C310.048135,231.516422 218.695957,266.246498 218.695957,151.513971 Z M186.221608,170.505942 L126.476512,170.505942 L126.476512,107.035365 L186.221608,107.035365 L186.221608,170.505942 Z" id="Shape"></path>
                    <polygon id="Path" points="220 110 90 110 90 0 220 0"></polygon>
                </g>
            </g>
        </g>
    </g>
</svg>