<?xml version="1.0" encoding="UTF-8"?>
<svg width="510px" height="510px" viewBox="0 0 510 510" version="1.1" xmlns="http://www.w3.org/2000/svg" xmlns:xlink="http://www.w3.org/1999/xlink">
    <!-- Generator: Sketch 48.2 (47327) - http://www.bohemiancoding.com/sketch -->
    <title>waiters</title>
    <desc>Created with Sketch.</desc>
    <defs></defs>
    <g id="Page-1" stroke="none" stroke-width="1" fill="none" fill-rule="evenodd" opacity="0.800000012">
        <g id="waiters" fill="#373737" fill-rule="nonzero">
            <g id="Step-3">
                <g id="waiter">
                    <path d="M484.229062,262.587246 C479.951836,207.579961 456.293613,156.444492 416.679961,117.279082 C378.492715,79.5082031 329.346445,56.6936719 276.493711,51.8217773 C281.978203,46.3273242 285.368906,38.7440625 285.368906,30.3689063 C285.368906,13.5976758 271.773223,0 255,0 C238.226777,0 224.631094,13.5976758 224.631094,30.3689062 C224.631094,38.7440625 228.021797,46.3273242 233.506289,51.8217773 C180.653555,56.6926758 131.507285,79.507207 93.3200391,117.279082 C53.7063867,156.444492 30.0491602,207.579961 25.7709375,262.587246 L0,262.587246 L0,293.811797 L24.8864063,293.811797 L52.040918,293.811797 L52.040918,315.658125 L123.232734,351.13998 L299.286328,378.42 L299.889961,378.503672 C299.952715,378.503672 306.019922,379.367285 311.807227,382.583672 C320.42543,387.391816 321.528105,393.585527 321.528105,398.456426 L321.528105,405.502793 L302.98084,405.502793 L302.98084,510 L479.732695,510 L479.732695,405.501797 L455.887207,405.501797 L455.887207,323.840039 L425.390801,293.812793 L485.112598,293.812793 L510,293.812793 L510,262.588242 L484.229062,262.588242 L484.229062,262.587246 Z M163.522734,110.660039 L176.335488,139.136367 C121.578223,163.772754 108.765469,216.864551 108.640957,217.395469 L78.2182617,210.37002 C78.8627344,207.579961 94.7972461,141.581777 163.522734,110.660039 Z M356.157305,469.56457 L335.340937,469.56457 L335.340937,448.748203 L356.157305,448.748203 L356.157305,469.56457 Z M424.663652,405.501797 L352.753652,405.501797 L352.753652,398.45543 C352.753652,362.849063 320.925469,349.60998 303.793652,347.518184 L132.808184,321.029063 L83.2654687,296.340879 L83.2654687,293.811797 L380.886328,293.811797 L424.662656,336.911777 L424.663652,405.501797 Z" id="Shape"></path>
                </g>
            </g>
        </g>
    </g>
</svg>