<?xml version="1.0" encoding="UTF-8"?>
<svg width="360px" height="770px" viewBox="0 0 360 770" version="1.1" xmlns="http://www.w3.org/2000/svg" xmlns:xlink="http://www.w3.org/1999/xlink">
    <!-- Generator: Sketch 48.2 (47327) - http://www.bohemiancoding.com/sketch -->
    <title>water</title>
    <desc>Created with Sketch.</desc>
    <defs></defs>
    <g id="Page-1" stroke="none" stroke-width="1" fill="none" fill-rule="evenodd" opacity="0.600000024">
        <g id="water" fill="#000000" fill-rule="nonzero">
            <g id="Step-2">
                <g id="bottle">
                    <path d="M360,362.441406 L360,272.207031 C360,247.288809 339.937095,227.089844 315.186722,227.089844 L44.813278,227.089844 C20.0629046,227.089844 0,247.288809 0,272.207031 L0,362.441406 C0,387.356621 20.0629046,407.558594 44.813278,407.558594 C20.0629046,407.558594 0,427.757559 0,452.675781 L0,542.910156 C0,567.825371 20.0629046,588.027344 44.813278,588.027344 C20.0629046,588.027344 0,608.226309 0,633.144531 L0,724.882812 C0,749.798027 20.0629046,770 44.813278,770 L315.186722,770 C339.937095,770 360,749.798027 360,724.882812 L360,633.144531 C360,608.226309 339.937095,588.027344 315.186722,588.027344 C339.937095,588.027344 360,567.825371 360,542.910156 L360,452.675781 C360,427.757559 339.937095,407.558594 315.186722,407.558594 C339.937095,407.558594 360,387.356621 360,362.441406 Z" id="Shape"></path>
                    <path d="M315.186722,181.972656 L254.549876,88.8989063 C263.655934,86.0324609 270.373444,77.7925586 270.373444,67.6757812 L270.373444,22.5585938 C270.373444,10.089707 260.351701,0 247.966805,0 L112.033195,0 C99.6482988,0 89.626556,10.089707 89.626556,22.5585938 L89.626556,67.6757812 C89.626556,77.7925586 96.3440664,86.0324609 105.450124,88.8989063 L44.813278,181.972656 L315.186722,181.972656 Z" id="Shape"></path>
                </g>
            </g>
        </g>
    </g>
</svg>