<?xml version="1.0" encoding="UTF-8"?>
<svg width="310px" height="770px" viewBox="0 0 310 770" version="1.1" xmlns="http://www.w3.org/2000/svg" xmlns:xlink="http://www.w3.org/1999/xlink">
    <!-- Generator: Sketch 48.2 (47327) - http://www.bohemiancoding.com/sketch -->
    <title>whiskey</title>
    <desc>Created with Sketch.</desc>
    <defs></defs>
    <g id="Page-1" stroke="none" stroke-width="1" fill="none" fill-rule="evenodd" opacity="0.600000024">
        <g id="whiskey" fill="#000100" fill-rule="nonzero">
            <g id="Step-2">
                <g id="empty-bottle">
                    <path d="M265.558645,296.267588 C228.492523,268.644479 206.665097,225.28041 206.665097,179.239816 L206.665097,74.8397513 L208.28049,74.8397513 C218.687136,74.8397513 227.11575,66.4732716 227.11575,56.1399518 L227.11575,18.6920007 C227.11575,8.36803938 218.688706,0 208.282059,0 L206.666667,0 L103.333333,0 L101.710091,0 C91.3034451,0 82.874831,8.36803938 82.874831,18.6920007 L82.874831,56.1399518 C82.874831,66.4732716 91.3034451,74.8397513 101.710091,74.8397513 L103.333333,74.8397513 L103.333333,179.239816 C103.333333,225.28041 81.5153265,268.644479 44.4397855,296.267588 C16.460052,317.121397 0,349.830838 0,384.574189 L0,727.769867 C0,751.103672 19.0330634,770 42.5119892,770 L267.49586,770 C290.966937,770 310,751.103672 310,727.769867 L310,384.572629 C309.99843,349.830838 293.538378,317.121397 265.558645,296.267588 Z M246.491044,631.517917 C246.491044,641.871513 238.06243,650.237993 227.655784,650.237993 L82.3285174,650.237993 C71.9218713,650.237993 63.5011065,641.871513 63.5011065,631.517917 L63.5011065,403.69512 C63.5011065,393.371159 71.9218713,384.996881 82.3285174,384.996881 L227.655784,384.996881 C238.06243,384.996881 246.491044,393.371159 246.491044,403.69512 L246.491044,631.517917 Z" id="Shape"></path>
                </g>
            </g>
        </g>
    </g>
</svg>